<svg width="129" height="65" xmlns="http://www.w3.org/2000/svg" xmlns:xlink="http://www.w3.org/1999/xlink" xml:space="preserve" overflow="hidden"><defs><filter id="fx0" x="-10%" y="-10%" width="120%" height="120%" filterUnits="userSpaceOnUse" primitiveUnits="userSpaceOnUse"><feComponentTransfer color-interpolation-filters="sRGB"><feFuncR type="discrete" tableValues="0.000000 0.000000"/><feFuncG type="discrete" tableValues="0.000000 0.000000"/><feFuncB type="discrete" tableValues="0.000000 0.000000"/><feFuncA type="linear" slope="1.000000" intercept="0.000000"/></feComponentTransfer><feGaussianBlur stdDeviation="0.000000 0.000000"/></filter><clipPath id="clip1"><rect x="776" y="81" width="129" height="65"/></clipPath><clipPath id="clip2"><rect x="0.740234" y="0.720001" width="1.19122" height="0.565201"/></clipPath><clipPath id="clip3"><rect x="0" y="0" width="3" height="2"/></clipPath><clipPath id="clip4"><rect x="0" y="0" width="2" height="2"/></clipPath><clipPath id="clip5"><rect x="0" y="0" width="2" height="2"/></clipPath><clipPath id="clip6"><rect x="0" y="0" width="2" height="2"/></clipPath><clipPath id="clip7"><rect x="777" y="82" width="128" height="64"/></clipPath><clipPath id="clip8"><rect x="777" y="82" width="128" height="64"/></clipPath><clipPath id="clip9"><rect x="777" y="82" width="128" height="64"/></clipPath></defs><g clip-path="url(#clip1)" transform="translate(-776 -81)"><g clip-path="url(#clip2)" filter="url(#fx0)" transform="translate(845 113)"><g clip-path="url(#clip3)"><g clip-path="url(#clip4)"><g clip-path="url(#clip5)"><g clip-path="url(#clip6)"><path d="M0.867946 0.763334 0.867946 0.923547C0.867946 0.923547 0.924399 0.923547 0.954613 0.921254 0.978373 0.917094 0.982746 0.9148 0.987119 0.89104L0.995866 0.85624 1.02171 0.85624 1.01733 0.932294 1.01963 1.01021 0.993573 1.01021 0.987119 0.979787C0.980666 0.958134 0.971919 0.953734 0.954613 0.951654 0.932959 0.94936 0.867946 0.94936 0.867946 0.94936L0.867946 1.08373C0.867946 1.10957 0.881066 1.12061 0.911279 1.12061L1.00232 1.12061C1.03045 1.12061 1.05856 1.11832 1.07608 1.07728L1.09963 1.0252 1.12149 1.0252C1.1192 1.03603 1.10837 1.13144 1.10629 1.15291 1.10629 1.15291 1.024 1.15083 0.989413 1.15083L0.833359 1.15083 0.740239 1.15291 0.740239 1.12936 0.770453 1.12269C0.792319 1.11832 0.798773 1.11187 0.798773 1.09456 0.798773 1.09456 0.801066 1.03603 0.801066 0.938507 0.801066 0.841227 0.798773 0.782667 0.798773 0.782667 0.798773 0.76328 0.792319 0.758907 0.770453 0.754534L0.740239 0.748134 0.740239 0.724374 0.831279 0.72624 1.00461 0.72624C1.0392 0.72624 1.09752 0.72 1.09752 0.72 1.09752 0.72 1.09544 0.756667 1.09315 0.843334L1.06939 0.843334 1.06064 0.812907C1.05211 0.773947 1.03917 0.75456 1.01523 0.75456L0.878986 0.75456C0.867946 0.754587 0.867946 0.756667 0.867946 0.763334ZM1.21877 0.780427 1.24483 0.780427 1.24483 0.871467 1.33379 0.867094 1.32941 0.908347 1.24275 0.90168 1.24275 1.06211C1.24275 1.10752 1.25795 1.12501 1.284 1.12501 1.30755 1.12501 1.32504 1.11189 1.33149 1.10107L1.3444 1.11627C1.33149 1.14648 1.29483 1.16168 1.26003 1.16168 1.21691 1.16168 1.18189 1.13584 1.18189 1.08605L1.18189 0.903947 1.13021 0.903947 1.13021 0.882294C1.17357 0.87792 1.20587 0.851867 1.21877 0.780427ZM1.40523 1.05979 1.42251 1.10104C1.42896 1.11832 1.44416 1.13584 1.47875 1.13584 1.51563 1.13584 1.53083 1.11627 1.53083 1.09251 1.53083 1.01875 1.38563 1.04043 1.38563 0.940827 1.38563 0.884587 1.43104 0.85832 1.48957 0.85832 1.51563 0.85832 1.55459 0.862694 1.57416 0.87144 1.56979 0.893094 1.56749 0.921227 1.56749 0.942907L1.54603 0.944987 1.53083 0.901654C1.52645 0.89104 1.50896 0.882267 1.48749 0.882267 1.46144 0.882267 1.43541 0.893094 1.43541 0.921227 1.43541 0.98832 1.58499 0.973307 1.58499 1.07291 1.58499 1.12936 1.5352 1.15957 1.47437 1.15957 1.42896 1.15957 1.38333 1.14208 1.38333 1.14208 1.38771 1.11624 1.38563 1.08813 1.38333 1.05979L1.40523 1.05979ZM1.57419 1.26771C1.58064 1.24395 1.58501 1.21376 1.58939 1.18541L1.61315 1.18333 1.62189 1.22875C1.62397 1.23957 1.63043 1.24832 1.64773 1.24832 1.67587 1.24832 1.71275 1.23104 1.74752 1.1704 1.73211 1.13352 1.68669 1.01456 1.64544 0.92352 1.63461 0.899574 1.63253 0.897467 1.61752 0.893094L1.60648 0.888934 1.60648 0.867067 1.67168 0.86936 1.75168 0.864987 1.75168 0.886667 1.73211 0.89104C1.71691 0.89312 1.71064 0.901654 1.71064 0.910427 1.71064 0.91272 1.71064 0.9148 1.71272 0.919174 1.71688 0.932294 1.75168 1.0296 1.77773 1.09459 1.7992 1.04917 1.84045 0.947307 1.84691 0.93 1.8492 0.921254 1.85128 0.919174 1.85128 0.91272 1.85128 0.90168 1.84483 0.895227 1.82981 0.891067L1.8144 0.886667 1.8144 0.865014 1.87523 0.867094 1.93147 0.865014 1.93147 0.886667 1.92064 0.8952C1.89899 0.903947 1.89669 0.906027 1.88813 0.92352L1.79293 1.14643C1.73648 1.27435 1.67795 1.28517 1.63688 1.28517 1.61085 1.2852 1.59128 1.27853 1.57419 1.26771Z" fill="#F45800" fill-rule="nonzero" fill-opacity="1"/></g></g></g></g></g><g clip-path="url(#clip7)"><g clip-path="url(#clip8)"><g clip-path="url(#clip9)"><path d="M794.459 90.3333 794.459 106.355C794.459 106.355 800.104 106.355 803.125 106.125 805.501 105.709 805.939 105.48 806.376 103.104L807.251 99.624 809.835 99.624 809.397 107.229 809.627 115.021 807.021 115.021 806.376 111.979C805.731 109.813 804.856 109.373 803.125 109.165 800.96 108.936 794.459 108.936 794.459 108.936L794.459 122.373C794.459 124.957 795.771 126.061 798.792 126.061L807.896 126.061C810.709 126.061 813.52 125.832 815.272 121.728L817.627 116.52 819.813 116.52C819.584 117.603 818.501 127.144 818.293 129.291 818.293 129.291 810.064 129.083 806.605 129.083L791 129.083 781.688 129.291 781.688 126.936 784.709 126.269C786.896 125.832 787.541 125.187 787.541 123.456 787.541 123.456 787.771 117.603 787.771 107.851 787.771 98.1227 787.541 92.2667 787.541 92.2667 787.541 90.328 786.896 89.8907 784.709 89.4533L781.688 88.8133 781.688 86.4373 790.792 86.624 808.125 86.624C811.584 86.624 817.416 86 817.416 86 817.416 86 817.208 89.6667 816.979 98.3333L814.603 98.3333 813.728 95.2907C812.875 91.3947 811.581 89.456 809.187 89.456L795.563 89.456C794.459 89.4587 794.459 89.6667 794.459 90.3333ZM829.541 92.0427 832.147 92.0427 832.147 101.147 841.043 100.709 840.605 104.835 831.939 104.168 831.939 120.211C831.939 124.752 833.459 126.501 836.064 126.501 838.419 126.501 840.168 125.189 840.813 124.107L842.104 125.627C840.813 128.648 837.147 130.168 833.667 130.168 829.355 130.168 825.853 127.584 825.853 122.605L825.853 104.395 820.685 104.395 820.685 102.229C825.021 101.792 828.251 99.1867 829.541 92.0427ZM848.187 119.979 849.915 124.104C850.56 125.832 852.08 127.584 855.539 127.584 859.227 127.584 860.747 125.627 860.747 123.251 860.747 115.875 846.227 118.043 846.227 108.083 846.227 102.459 850.768 99.832 856.621 99.832 859.227 99.832 863.123 100.269 865.08 101.144 864.643 103.309 864.413 106.123 864.413 108.291L862.267 108.499 860.747 104.165C860.309 103.104 858.56 102.227 856.413 102.227 853.808 102.227 851.205 103.309 851.205 106.123 851.205 112.832 866.163 111.331 866.163 121.291 866.163 126.936 861.184 129.957 855.101 129.957 850.56 129.957 845.997 128.208 845.997 128.208 846.435 125.624 846.227 122.813 845.997 119.979L848.187 119.979ZM865.083 140.771C865.728 138.395 866.165 135.376 866.603 132.541L868.979 132.333 869.853 136.875C870.061 137.957 870.707 138.832 872.437 138.832 875.251 138.832 878.939 137.104 882.416 131.04 880.875 127.352 876.333 115.456 872.208 106.352 871.125 103.957 870.917 103.747 869.416 103.309L868.312 102.893 868.312 100.707 874.832 100.936 882.832 100.499 882.832 102.667 880.875 103.104C879.355 103.312 878.728 104.165 878.728 105.043 878.728 105.272 878.728 105.48 878.936 105.917 879.352 107.229 882.832 116.96 885.437 123.459 887.584 118.917 891.709 108.731 892.355 107 892.584 106.125 892.792 105.917 892.792 105.272 892.792 104.168 892.147 103.523 890.645 103.107L889.104 102.667 889.104 100.501 895.187 100.709 900.811 100.501 900.811 102.667 899.728 103.52C897.563 104.395 897.333 104.603 896.477 106.352L886.957 128.643C881.312 141.435 875.459 142.517 871.352 142.517 868.749 142.52 866.792 141.853 865.083 140.771Z" fill="#F45800" fill-rule="nonzero" fill-opacity="1"/></g></g></g></g></svg>