<svg width="162" height="66" xmlns="http://www.w3.org/2000/svg" xmlns:xlink="http://www.w3.org/1999/xlink" xml:space="preserve" overflow="hidden"><defs><filter id="fx0" x="-10%" y="-10%" width="120%" height="120%" filterUnits="userSpaceOnUse" primitiveUnits="userSpaceOnUse"><feComponentTransfer color-interpolation-filters="sRGB"><feFuncR type="discrete" tableValues="0.000000 0.000000"/><feFuncG type="discrete" tableValues="0.000000 0.000000"/><feFuncB type="discrete" tableValues="0.000000 0.000000"/><feFuncA type="linear" slope="1.000000" intercept="0.000000"/></feComponentTransfer><feGaussianBlur stdDeviation="0.000000 0.000000"/></filter><clipPath id="clip1"><rect x="1010" y="182" width="162" height="66"/></clipPath><clipPath id="clip2"><rect x="0.533813" y="0.680527" width="1.599" height="0.640671"/></clipPath><clipPath id="clip3"><rect x="0" y="0" width="3" height="2"/></clipPath><clipPath id="clip4"><rect x="1011" y="183" width="160" height="64"/></clipPath><clipPath id="clip5"><rect x="1011" y="183" width="160" height="64"/></clipPath><clipPath id="clip6"><rect x="1011" y="183" width="160" height="64"/></clipPath></defs><g clip-path="url(#clip1)" transform="translate(-1010 -182)"><g clip-path="url(#clip2)" filter="url(#fx0)" transform="translate(1095 214)"><g clip-path="url(#clip3)"><path d="M0.740613 0.820304C0.627836 0.820304 0.533859 0.86815 0.533859 1.0125 0.533859 1.12685 0.597052 1.19887 0.743525 1.19887 0.915931 1.19887 0.926983 1.0853 0.926983 1.0853L0.843444 1.0853C0.843444 1.0853 0.825533 1.14645 0.738429 1.14645 0.667485 1.14645 0.61646 1.09853 0.61646 1.03135L0.935719 1.03135 0.935719 0.989202C0.935719 0.922747 0.893532 0.820304 0.740613 0.820304ZM0.737701 0.874177C0.805232 0.874177 0.85127 0.915547 0.85127 0.977554L0.618308 0.977554C0.618308 0.911727 0.678399 0.874177 0.737701 0.874177Z" fill="#E53238" fill-rule="nonzero" fill-opacity="1"/><path d="M0.93566 0.680526 0.93566 1.12638C0.93566 1.15168 0.933854 1.18722 0.933854 1.18722L1.01353 1.18722C1.01353 1.18722 1.01639 1.1617 1.01639 1.13837 1.01639 1.13837 1.05576 1.19996 1.1628 1.19996 1.27552 1.19996 1.35208 1.1217 1.35208 1.00959 1.35208 0.905284 1.28175 0.821396 1.16298 0.821396 1.05176 0.821396 1.0172 0.881457 1.0172 0.881457L1.0172 0.680526ZM1.14241 0.876543C1.21896 0.876543 1.26763 0.933352 1.26763 1.00959 1.26763 1.09133 1.21142 1.14481 1.14296 1.14481 1.06126 1.14481 1.0172 1.08103 1.0172 1.01031 1.0172 0.944424 1.05674 0.876543 1.14241 0.876543Z" fill="#0064D2" fill-rule="nonzero" fill-opacity="1"/><path d="M1.5501 0.820304C1.38043 0.820304 1.36955 0.913204 1.36955 0.928049L1.454 0.928049C1.454 0.928049 1.45843 0.873812 1.54427 0.873812 1.60006 0.873812 1.64328 0.899346 1.64328 0.948434L1.64328 0.965906 1.54427 0.965906C1.41283 0.965906 1.34335 1.00436 1.34335 1.08239 1.34335 1.15918 1.40755 1.20096 1.49432 1.20096 1.61256 1.20096 1.65065 1.13562 1.65065 1.13562 1.65065 1.16161 1.65266 1.18722 1.65266 1.18722L1.72773 1.18722C1.72773 1.18722 1.72482 1.15548 1.72482 1.13517L1.72482 0.959627C1.72482 0.844527 1.63198 0.820304 1.5501 0.820304ZM1.64328 1.01832 1.64328 1.04162C1.64328 1.072 1.62454 1.14754 1.51415 1.14754 1.45371 1.14754 1.42779 1.11738 1.42779 1.08239 1.42779 1.01873 1.51507 1.01832 1.64328 1.01832Z" fill="#F5AF02" fill-rule="nonzero" fill-opacity="1"/><path d="M1.67935 0.834879 1.77435 0.834879 1.9107 1.10804 2.04673 0.834879 2.13279 0.834879 1.88501 1.32119 1.79474 1.32119 1.86624 1.18562Z" fill="#86B817" fill-rule="nonzero" fill-opacity="1"/></g></g><g clip-path="url(#clip4)"><g clip-path="url(#clip5)"><g clip-path="url(#clip6)"><path d="M1031.73 197.031C1020.45 197.031 1011.05 201.816 1011.05 216.251 1011.05 227.686 1017.37 234.888 1032.02 234.888 1049.26 234.888 1050.37 223.531 1050.37 223.531L1042.01 223.531C1042.01 223.531 1040.22 229.646 1031.51 229.646 1024.42 229.646 1019.31 224.853 1019.31 218.136L1051.24 218.136 1051.24 213.921C1051.24 207.275 1047.02 197.031 1031.73 197.031ZM1031.44 202.418C1038.19 202.418 1042.79 206.555 1042.79 212.756L1019.5 212.756C1019.5 206.173 1025.51 202.418 1031.44 202.418Z" fill="#E53238" fill-rule="nonzero" fill-opacity="1"/><path d="M1051.23 183.053 1051.23 227.638C1051.23 230.169 1051.05 233.723 1051.05 233.723L1059.02 233.723C1059.02 233.723 1059.31 231.171 1059.31 228.838 1059.31 228.838 1063.24 234.997 1073.95 234.997 1085.22 234.997 1092.88 227.171 1092.88 215.959 1092.88 205.529 1085.84 197.14 1073.97 197.14 1062.84 197.14 1059.39 203.146 1059.39 203.146L1059.39 183.053ZM1071.91 202.655C1079.56 202.655 1084.43 208.336 1084.43 215.959 1084.43 224.134 1078.81 229.482 1071.96 229.482 1063.79 229.482 1059.39 223.103 1059.39 216.032 1059.39 209.443 1063.34 202.655 1071.91 202.655Z" fill="#0064D2" fill-rule="nonzero" fill-opacity="1"/><path d="M1112.68 197.031C1095.71 197.031 1094.62 206.321 1094.62 207.806L1103.07 207.806C1103.07 207.806 1103.51 202.382 1112.09 202.382 1117.67 202.382 1122 204.935 1122 209.844L1122 211.591 1112.09 211.591C1098.95 211.591 1092 215.436 1092 223.239 1092 230.919 1098.42 235.097 1107.1 235.097 1118.92 235.097 1122.73 228.563 1122.73 228.563 1122.73 231.162 1122.93 233.723 1122.93 233.723L1130.44 233.723C1130.44 233.723 1130.15 230.548 1130.15 228.518L1130.15 210.963C1130.15 199.453 1120.87 197.031 1112.68 197.031ZM1122 216.833 1122 219.163C1122 222.201 1120.12 229.755 1109.08 229.755 1103.04 229.755 1100.45 226.739 1100.45 223.239 1100.45 216.874 1109.17 216.833 1122 216.833Z" fill="#F5AF02" fill-rule="nonzero" fill-opacity="1"/><path d="M1125.6 198.489 1135.1 198.489 1148.74 225.805 1162.34 198.489 1170.95 198.489 1146.17 247.119 1137.14 247.119 1144.29 233.563Z" fill="#86B817" fill-rule="nonzero" fill-opacity="1"/></g></g></g></g></svg>