<svg width="183" height="56" xmlns="http://www.w3.org/2000/svg" xmlns:xlink="http://www.w3.org/1999/xlink" xml:space="preserve" overflow="hidden"><defs><filter id="fx0" x="-10%" y="-10%" width="120%" height="120%" filterUnits="userSpaceOnUse" primitiveUnits="userSpaceOnUse"><feComponentTransfer color-interpolation-filters="sRGB"><feFuncR type="discrete" tableValues="0.000000 0.000000"/><feFuncG type="discrete" tableValues="0.000000 0.000000"/><feFuncB type="discrete" tableValues="0.000000 0.000000"/><feFuncA type="linear" slope="1.000000" intercept="0.000000"/></feComponentTransfer><feGaussianBlur stdDeviation="0.000000 0.000000"/></filter><clipPath id="clip1"><rect x="509" y="400" width="183" height="56"/></clipPath><clipPath id="clip2"><rect x="1.42444" y="1.22574" width="1.81781" height="0.548492"/></clipPath><clipPath id="clip3"><rect x="0" y="0" width="4" height="3"/></clipPath><clipPath id="clip4"><rect x="1" y="1" width="3" height="1"/></clipPath><clipPath id="clip5"><rect x="1" y="1" width="3" height="1"/></clipPath><clipPath id="clip6"><rect x="1" y="1" width="3" height="1"/></clipPath><clipPath id="clip7"><rect x="510" y="401" width="182" height="55"/></clipPath><clipPath id="clip8"><rect x="510" y="401" width="182" height="55"/></clipPath><clipPath id="clip9"><rect x="510" y="401" width="182" height="55"/></clipPath></defs><g clip-path="url(#clip1)" transform="translate(-509 -400)"><g clip-path="url(#clip2)" filter="url(#fx0)" transform="translate(604 427)"><g clip-path="url(#clip3)"><g clip-path="url(#clip4)"><g clip-path="url(#clip5)"><g clip-path="url(#clip6)"><path d="M1.12884 0.429146C1.02321 0.507007 0.87009 0.54855 0.738262 0.54855 0.553419 0.54855 0.387011 0.480184 0.261116 0.366475 0.251225 0.357535 0.260087 0.345347 0.271956 0.35231 0.407822 0.431361 0.575811 0.478917 0.749339 0.478917 0.866371 0.478917 0.995114 0.454704 1.11349 0.404456 1.13137 0.396863 1.14633 0.416167 1.12884 0.429146" fill="#FF9900" fill-rule="nonzero" fill-opacity="1" transform="matrix(1 0 0 1.00124 1.42334 1.22501)"/><path d="M1.17276 0.378898C1.15931 0.361649 1.0835 0.370749 1.04948 0.374784 1.03911 0.376052 1.03753 0.36703 1.04687 0.360541 1.10724 0.31805 1.20631 0.330313 1.21786 0.344556 1.22941 0.358878 1.21485 0.458187 1.15812 0.505586 1.14942 0.512863 1.14111 0.508987 1.14499 0.499332 1.15773 0.467523 1.18629 0.396229 1.17276 0.378898" fill="#FF9900" fill-rule="nonzero" fill-opacity="1" transform="matrix(1 0 0 1.00124 1.42334 1.22501)"/><path d="M1.05185 0.060564 1.05185 0.0192588C1.05185 0.0130076 1.0566 0.00881378 1.06229 0.00881378L1.24722 0.00881378C1.25315 0.00881378 1.2579 0.0130867 1.2579 0.0192588L1.2579 0.0546293C1.25782 0.060564 1.25284 0.0683185 1.24397 0.0805834L1.14815 0.217397C1.18376 0.216527 1.22134 0.221828 1.25363 0.240028 1.26091 0.244143 1.26289 0.250156 1.26344 0.256091L1.26344 0.300166C1.26344 0.30618 1.25679 0.313221 1.24983 0.309581 1.19294 0.279751 1.11737 0.276506 1.05446 0.309898 1.04805 0.313381 1.04133 0.306418 1.04133 0.300404L1.04133 0.258544C1.04133 0.251818 1.04141 0.240345 1.04813 0.230137L1.15915 0.0709299 1.06253 0.0709299C1.0566 0.0709299 1.05185 0.066736 1.05185 0.060564" fill="#221F1F" fill-rule="nonzero" fill-opacity="1" transform="matrix(1 0 0 1.00124 1.42334 1.22501)"/><path d="M0.377277 0.318286 0.321017 0.318286C0.315636 0.31789 0.311362 0.313855 0.310966 0.308712L0.310966 0.019971C0.310966 0.0141946 0.315793 0.00960507 0.321808 0.00960507L0.374271 0.00960507C0.379731 0.00984231 0.38408 0.0140363 0.384479 0.0192588L0.384479 0.0570031 0.385505 0.0570031C0.399196 0.0205248 0.424911 0.00351215 0.45957 0.00351215 0.494783 0.00351215 0.51678 0.0205248 0.532605 0.0570031 0.546217 0.0205248 0.577157 0.00351215 0.61031 0.00351215 0.633891 0.00351215 0.659688 0.013245 0.675434 0.0350846 0.693239 0.059377 0.689599 0.0946684 0.689599 0.125608L0.68952 0.307843C0.68952 0.313616 0.684691 0.318286 0.678679 0.318286L0.622497 0.318286C0.616877 0.31789 0.612368 0.313381 0.612368 0.307843L0.612368 0.154806C0.612368 0.142621 0.613476 0.112235 0.610787 0.100682 0.606591 0.0812957 0.594011 0.0758357 0.57771 0.0758357 0.5641 0.0758357 0.549857 0.0849357 0.54408 0.0994954 0.538303 0.114055 0.538859 0.138427 0.538859 0.154806L0.538859 0.307843C0.538859 0.313616 0.53403 0.318286 0.528017 0.318286L0.471836 0.318286C0.466137 0.31789 0.461707 0.313381 0.461707 0.307843L0.461628 0.154806C0.461628 0.122601 0.466931 0.0752028 0.42697 0.0752028 0.386534 0.0752028 0.388119 0.121414 0.388119 0.154806L0.388119 0.307843C0.388119 0.313616 0.38329 0.318286 0.377277 0.318286" fill="#221F1F" fill-rule="nonzero" fill-opacity="1" transform="matrix(1 0 0 1.00124 1.42334 1.22501)"/><path d="M1.41711 0.00351215C1.50059 0.00351215 1.54577 0.0752028 1.54577 0.166359 1.54577 0.254429 1.49584 0.324301 1.41711 0.324301 1.33513 0.324301 1.2905 0.25261 1.2905 0.163273 1.2905 0.0733828 1.33568 0.00351215 1.41711 0.00351215M1.41758 0.0624631C1.37612 0.0624631 1.37351 0.118961 1.37351 0.154173 1.37351 0.189465 1.37295 0.264796 1.41711 0.264796 1.46071 0.264796 1.46277 0.204024 1.46277 0.166992 1.46277 0.142621 1.46174 0.113501 1.45438 0.0903954 1.44805 0.070297 1.43547 0.0624631 1.41758 0.0624631" fill="#221F1F" fill-rule="nonzero" fill-opacity="1" transform="matrix(1 0 0 1.00124 1.42334 1.22501)"/><path d="M1.65402 0.318286 1.598 0.318286C1.59238 0.31789 1.58787 0.313381 1.58787 0.307843L1.58779 0.0190214C1.58826 0.0137198 1.59293 0.00960507 1.59863 0.00960507L1.65078 0.00960507C1.65568 0.00984231 1.65972 0.0131659 1.66082 0.0176762L1.66082 0.0618302 1.66185 0.0618302C1.6776 0.0223448 1.69968 0.00351215 1.73853 0.00351215 1.76377 0.00351215 1.78838 0.012612 1.80421 0.0375376 1.81893 0.0606431 1.81893 0.0994954 1.81893 0.127428L1.81893 0.309186C1.81829 0.31425 1.81362 0.318286 1.80808 0.318286L1.75166 0.318286C1.74652 0.31789 1.74225 0.314093 1.74169 0.309186L1.74169 0.152353C1.74169 0.120781 1.74533 0.0745699 1.70648 0.0745699 1.69279 0.0745699 1.68021 0.0837487 1.67396 0.0976754 1.66605 0.115321 1.66502 0.132888 1.66502 0.152353L1.66502 0.307843C1.66494 0.313616 1.66003 0.318286 1.65402 0.318286" fill="#221F1F" fill-rule="nonzero" fill-opacity="1" transform="matrix(1 0 0 1.00124 1.42334 1.22501)"/><path d="M0.166873 0.180365 0.166873 0.168179C0.126201 0.168179 0.0832341 0.176883 0.0832341 0.224835 0.0832341 0.249128 0.0958156 0.265587 0.117418 0.265587 0.133244 0.265587 0.147408 0.255854 0.156349 0.240028 0.167427 0.220562 0.166873 0.202284 0.166873 0.180365M0.223609 0.317495C0.21989 0.320818 0.214509 0.321056 0.210315 0.318841 0.191641 0.30333 0.188317 0.29613 0.17803 0.281333 0.14717 0.312826 0.125331 0.322243 0.0852916 0.322243 0.0379725 0.322243 0.00109855 0.293044 0.00109855 0.234568 0.00109855 0.188911 0.0258659 0.157813 0.061078 0.142621 0.0916218 0.129169 0.134272 0.126795 0.166873 0.123076L0.166873 0.115796C0.166873 0.102423 0.167902 0.0865973 0.160068 0.0750447 0.153184 0.0646788 0.140049 0.0604056 0.128496 0.0604056 0.107052 0.0604056 0.0879027 0.0714047 0.0832341 0.0941936 0.0822845 0.0992579 0.0785657 0.104243 0.0735014 0.10448L0.0189025 0.098625C0.014313 0.0975964 0.0092488 0.0938773 0.0105149 0.0868348 0.0230963 0.0206831 0.0828387 0.000742638 0.13633 0.000742638 0.163708 0.000742638 0.199474 0.00802249 0.221077 0.0287542 0.248455 0.054313 0.245844 0.0884173 0.245844 0.125529L0.245844 0.213203C0.245844 0.239553 0.256764 0.251106 0.26705 0.265349 0.27069 0.270413 0.271482 0.276506 0.266892 0.280305 0.255418 0.289879 0.235003 0.307683 0.223767 0.317655L0.223609 0.317495" fill="#221F1F" fill-rule="nonzero" fill-opacity="1" transform="matrix(1 0 0 1.00124 2.16089 1.22501)"/><path d="M0.166873 0.180365 0.166873 0.168179C0.126201 0.168179 0.0832341 0.176883 0.0832341 0.224835 0.0832341 0.249128 0.0958156 0.265587 0.117418 0.265587 0.133244 0.265587 0.147408 0.255854 0.156349 0.240028 0.167427 0.220562 0.166873 0.202284 0.166873 0.180365M0.223609 0.317495C0.21989 0.320818 0.214509 0.321056 0.210315 0.318841 0.191641 0.30333 0.188317 0.29613 0.17803 0.281333 0.14717 0.312826 0.125331 0.322243 0.0852916 0.322243 0.0379725 0.322243 0.00109855 0.293044 0.00109855 0.234568 0.00109855 0.188911 0.0258659 0.157813 0.061078 0.142621 0.0916218 0.129169 0.134272 0.126795 0.166873 0.123076L0.166873 0.115796C0.166873 0.102423 0.167902 0.0865973 0.160068 0.0750447 0.153184 0.0646788 0.140049 0.0604056 0.128496 0.0604056 0.107052 0.0604056 0.0879027 0.0714047 0.0832341 0.0941936 0.0822845 0.0992579 0.0785657 0.104243 0.0735014 0.10448L0.0189025 0.098625C0.014313 0.0975964 0.0092488 0.0938773 0.0105149 0.0868348 0.0230963 0.0206831 0.0828387 0.000742638 0.13633 0.000742638 0.163708 0.000742638 0.199474 0.00802249 0.221077 0.0287542 0.248455 0.054313 0.245844 0.0884173 0.245844 0.125529L0.245844 0.213203C0.245844 0.239553 0.256764 0.251106 0.26705 0.265349 0.27069 0.270413 0.271482 0.276506 0.266892 0.280305 0.255418 0.289879 0.235003 0.307683 0.223767 0.317655L0.223609 0.317495" fill="#221F1F" fill-rule="nonzero" fill-opacity="1" transform="matrix(1 0 0 1.00124 1.42334 1.22501)"/></g></g></g></g></g><g clip-path="url(#clip7)"><g clip-path="url(#clip8)"><g clip-path="url(#clip9)"><path d="M112.884 42.9146C102.321 50.7007 87.009 54.855 73.8262 54.855 55.3419 54.855 38.7011 48.0184 26.1116 36.6475 25.1225 35.7535 26.0087 34.5347 27.1956 35.231 40.7822 43.1361 57.5811 47.8917 74.9339 47.8917 86.6371 47.8917 99.5114 45.4704 111.349 40.4457 113.137 39.6863 114.633 41.6167 112.884 42.9146" fill="#FF9900" fill-rule="nonzero" fill-opacity="1" transform="matrix(1 0 0 1.00124 510 401)"/><path d="M117.276 37.8898C115.931 36.1649 108.35 37.0749 104.948 37.4784 103.911 37.6052 103.753 36.703 104.687 36.0541 110.724 31.805 120.631 33.0313 121.786 34.4556 122.941 35.8878 121.485 45.8187 115.812 50.5586 114.942 51.2863 114.111 50.8987 114.499 49.9332 115.773 46.7523 118.629 39.6229 117.276 37.8898" fill="#FF9900" fill-rule="nonzero" fill-opacity="1" transform="matrix(1 0 0 1.00124 510 401)"/><path d="M105.185 6.0564 105.185 1.92588C105.185 1.30076 105.66 0.881378 106.229 0.881378L124.722 0.881378C125.315 0.881378 125.79 1.30867 125.79 1.92588L125.79 5.46293C125.782 6.0564 125.284 6.83185 124.397 8.05834L114.815 21.7397C118.376 21.6527 122.134 22.1828 125.363 24.0028 126.091 24.4143 126.289 25.0156 126.344 25.6091L126.344 30.0166C126.344 30.618 125.679 31.3221 124.983 30.9581 119.294 27.9751 111.737 27.6506 105.446 30.9898 104.805 31.3381 104.133 30.6418 104.133 30.0404L104.133 25.8544C104.133 25.1818 104.141 24.0345 104.813 23.0137L115.915 7.09299 106.253 7.09299C105.66 7.09299 105.185 6.67361 105.185 6.0564" fill="#221F1F" fill-rule="nonzero" fill-opacity="1" transform="matrix(1 0 0 1.00124 510 401)"/><path d="M37.7277 31.8286 32.1017 31.8286C31.5636 31.789 31.1362 31.3855 31.0966 30.8712L31.0966 1.9971C31.0966 1.41946 31.5793 0.960507 32.1808 0.960507L37.4271 0.960507C37.9731 0.984231 38.408 1.40363 38.4479 1.92588L38.4479 5.70031 38.5505 5.70031C39.9196 2.05248 42.4911 0.351215 45.957 0.351215 49.4783 0.351215 51.678 2.05248 53.2605 5.70031 54.6217 2.05248 57.7157 0.351215 61.031 0.351215 63.3891 0.351215 65.9688 1.3245 67.5434 3.50847 69.3239 5.9377 68.9599 9.46684 68.9599 12.5608L68.952 30.7843C68.952 31.3616 68.4691 31.8286 67.8679 31.8286L62.2497 31.8286C61.6877 31.789 61.2368 31.3381 61.2368 30.7843L61.2368 15.4806C61.2368 14.2621 61.3476 11.2235 61.0787 10.0682 60.6591 8.12957 59.4011 7.58357 57.771 7.58357 56.41 7.58357 54.9857 8.49358 54.408 9.94954 53.8303 11.4055 53.8859 13.8427 53.8859 15.4806L53.8859 30.7843C53.8859 31.3616 53.403 31.8286 52.8017 31.8286L47.1836 31.8286C46.6137 31.789 46.1707 31.3381 46.1707 30.7843L46.1628 15.4806C46.1628 12.2601 46.6931 7.52028 42.697 7.52028 38.6534 7.52028 38.8119 12.1414 38.8119 15.4806L38.8119 30.7843C38.8119 31.3616 38.329 31.8286 37.7277 31.8286" fill="#221F1F" fill-rule="nonzero" fill-opacity="1" transform="matrix(1 0 0 1.00124 510 401)"/><path d="M141.711 0.351215C150.059 0.351215 154.577 7.52028 154.577 16.6359 154.577 25.4429 149.584 32.4301 141.711 32.4301 133.513 32.4301 129.05 25.261 129.05 16.3273 129.05 7.33828 133.568 0.351215 141.711 0.351215M141.758 6.24631C137.612 6.24631 137.351 11.8961 137.351 15.4173 137.351 18.9465 137.295 26.4795 141.711 26.4795 146.071 26.4795 146.277 20.4024 146.277 16.6992 146.277 14.2621 146.174 11.3501 145.438 9.03954 144.805 7.0297 143.547 6.24631 141.758 6.24631" fill="#221F1F" fill-rule="nonzero" fill-opacity="1" transform="matrix(1 0 0 1.00124 510 401)"/><path d="M165.402 31.8286 159.8 31.8286C159.238 31.789 158.787 31.3381 158.787 30.7843L158.779 1.90214C158.826 1.37198 159.293 0.960507 159.863 0.960507L165.078 0.960507C165.568 0.984231 165.972 1.31659 166.082 1.76762L166.082 6.18302 166.185 6.18302C167.76 2.23448 169.968 0.351215 173.853 0.351215 176.377 0.351215 178.838 1.2612 180.421 3.75376 181.893 6.06431 181.893 9.94954 181.893 12.7428L181.893 30.9186C181.829 31.425 181.362 31.8286 180.808 31.8286L175.166 31.8286C174.652 31.789 174.225 31.4093 174.169 30.9186L174.169 15.2353C174.169 12.0781 174.533 7.45699 170.648 7.45699 169.279 7.45699 168.021 8.37487 167.396 9.76754 166.605 11.5321 166.502 13.2888 166.502 15.2353L166.502 30.7843C166.494 31.3616 166.003 31.8286 165.402 31.8286" fill="#221F1F" fill-rule="nonzero" fill-opacity="1" transform="matrix(1 0 0 1.00124 510 401)"/><path d="M16.6873 18.0365 16.6873 16.8179C12.6201 16.8179 8.32341 17.6883 8.32341 22.4835 8.32341 24.9128 9.58156 26.5587 11.7418 26.5587 13.3244 26.5587 14.7408 25.5854 15.6349 24.0028 16.7427 22.0562 16.6873 20.2283 16.6873 18.0365M22.3609 31.7495C21.989 32.0818 21.4509 32.1056 21.0315 31.8841 19.1641 30.333 18.8317 29.613 17.803 28.1333 14.717 31.2826 12.5331 32.2243 8.52916 32.2243 3.79725 32.2243 0.109855 29.3044 0.109855 23.4568 0.109855 18.8911 2.58659 15.7813 6.10781 14.2621 9.16218 12.9169 13.4272 12.6795 16.6873 12.3076L16.6873 11.5796C16.6873 10.2423 16.7902 8.65973 16.0068 7.50447 15.3184 6.46788 14.0049 6.04056 12.8496 6.04056 10.7052 6.04056 8.79027 7.14047 8.32341 9.41936 8.22845 9.92579 7.85658 10.4243 7.35014 10.448L1.89025 9.8625C1.4313 9.75964 0.92488 9.38773 1.05149 8.68348 2.30963 2.06831 8.28387 0.0742638 13.633 0.0742638 16.3708 0.0742638 19.9474 0.802249 22.1077 2.87542 24.8455 5.4313 24.5844 8.84173 24.5844 12.5529L24.5844 21.3203C24.5844 23.9553 25.6764 25.1106 26.705 26.5349 27.069 27.0413 27.1482 27.6506 26.6892 28.0305 25.5418 28.9879 23.5003 30.7683 22.3767 31.7655L22.3609 31.7495" fill="#221F1F" fill-rule="nonzero" fill-opacity="1" transform="matrix(1 0 0 1.00124 583.756 401)"/><path d="M16.6873 18.0365 16.6873 16.8179C12.6201 16.8179 8.32341 17.6883 8.32341 22.4835 8.32341 24.9128 9.58156 26.5587 11.7418 26.5587 13.3244 26.5587 14.7408 25.5854 15.6349 24.0028 16.7427 22.0562 16.6873 20.2283 16.6873 18.0365M22.3609 31.7495C21.989 32.0818 21.4509 32.1056 21.0315 31.8841 19.1641 30.333 18.8317 29.613 17.803 28.1333 14.717 31.2826 12.5331 32.2243 8.52916 32.2243 3.79725 32.2243 0.109855 29.3044 0.109855 23.4568 0.109855 18.8911 2.58659 15.7813 6.10781 14.2621 9.16218 12.9169 13.4272 12.6795 16.6873 12.3076L16.6873 11.5796C16.6873 10.2423 16.7902 8.65973 16.0068 7.50447 15.3184 6.46788 14.0049 6.04056 12.8496 6.04056 10.7052 6.04056 8.79027 7.14047 8.32341 9.41936 8.22845 9.92579 7.85658 10.4243 7.35014 10.448L1.89025 9.8625C1.4313 9.75964 0.92488 9.38773 1.05149 8.68348 2.30963 2.06831 8.28387 0.0742638 13.633 0.0742638 16.3708 0.0742638 19.9474 0.802249 22.1077 2.87542 24.8455 5.4313 24.5844 8.84173 24.5844 12.5529L24.5844 21.3203C24.5844 23.9553 25.6764 25.1106 26.705 26.5349 27.069 27.0413 27.1482 27.6506 26.6892 28.0305 25.5418 28.9879 23.5003 30.7683 22.3767 31.7655L22.3609 31.7495" fill="#221F1F" fill-rule="nonzero" fill-opacity="1" transform="matrix(1 0 0 1.00124 510 401)"/></g></g></g></g></svg>